<svg width="36" height="36" viewBox="0 0 36 36" fill="none" xmlns="http://www.w3.org/2000/svg">
<g clip-path="url(#clip0)">
<rect x="2.5" y="2.5" width="31" height="31" rx="2" stroke="#DF1714" stroke-width="2"/>
<path d="M12.2075 13C12.8868 13 13.5094 13.097 14.0755 13.2909C14.6478 13.4788 15.1635 13.7273 15.6226 14.0364C16.0881 14.3394 16.4969 14.6606 16.8491 15C17.0755 15.2 17.283 15.4061 17.4717 15.6182C17.6667 15.8303 17.8491 16.0364 18.0189 16.2364C18.1698 16.0364 18.3302 15.8394 18.5 15.6455C18.6698 15.4515 18.8868 15.2364 19.1509 15C19.6792 14.4909 20.3302 14.0303 21.1038 13.6182C21.8836 13.2061 22.7925 13 23.8302 13C24.7862 13 25.6541 13.2242 26.434 13.6727C27.2201 14.1152 27.8428 14.7152 28.3019 15.4727C28.7673 16.2242 29 17.0606 29 17.9818C29 18.6788 28.8648 19.3333 28.5943 19.9455C28.3302 20.5515 27.9623 21.0848 27.4906 21.5455C27.0189 22 26.4686 22.3576 25.8396 22.6182C25.217 22.8727 24.5472 23 23.8302 23C23.1384 23 22.5031 22.9061 21.9245 22.7182C21.3522 22.5242 20.8333 22.2788 20.3679 21.9818C19.9088 21.6788 19.5031 21.3636 19.1509 21.0364C18.9245 20.8182 18.717 20.603 18.5283 20.3909C18.3396 20.1727 18.1698 19.9636 18.0189 19.7636C17.8491 19.9636 17.6667 20.1727 17.4717 20.3909C17.283 20.603 17.0755 20.8182 16.8491 21.0364C16.4969 21.3636 16.0881 21.6788 15.6226 21.9818C15.1635 22.2788 14.6478 22.5242 14.0755 22.7182C13.5094 22.9061 12.8868 23 12.2075 23C11.239 23 10.3616 22.7758 9.57547 22.3273C8.78931 21.8788 8.16352 21.2758 7.69811 20.5182C7.2327 19.7606 7 18.9152 7 17.9818C7 17.2909 7.13208 16.6455 7.39623 16.0455C7.66667 15.4394 8.03774 14.9091 8.50943 14.4545C8.98742 14 9.54088 13.6455 10.1698 13.3909C10.805 13.1303 11.4843 13 12.2075 13ZM9.15094 17.9818C9.15094 18.5273 9.28616 19.0242 9.5566 19.4727C9.83333 19.9152 10.2013 20.2697 10.6604 20.5364C11.1258 20.797 11.6415 20.9273 12.2075 20.9273C12.8302 20.9273 13.3994 20.7909 13.9151 20.5182C14.4308 20.2455 14.9057 19.9091 15.3396 19.5091C15.6226 19.2364 15.8711 18.9727 16.0849 18.7182C16.2987 18.4636 16.4906 18.2182 16.6604 17.9818C16.4906 17.7636 16.3019 17.5303 16.0943 17.2818C15.8931 17.0273 15.6415 16.7636 15.3396 16.4909C14.9245 16.0909 14.4528 15.7545 13.9245 15.4818C13.4025 15.2091 12.8302 15.0727 12.2075 15.0727C11.6415 15.0727 11.1258 15.2061 10.6604 15.4727C10.2013 15.7333 9.83333 16.0848 9.5566 16.5273C9.28616 16.9636 9.15094 17.4485 9.15094 17.9818ZM26.8491 17.9818C26.8491 17.4485 26.7107 16.9636 26.434 16.5273C26.1635 16.0848 25.7987 15.7333 25.3396 15.4727C24.8868 15.2061 24.3836 15.0727 23.8302 15.0727C23.4025 15.0727 23 15.1364 22.6226 15.2636C22.2453 15.3848 21.8931 15.5545 21.566 15.7727C21.239 15.9848 20.9371 16.2242 20.6604 16.4909C20.3208 16.8 20.0377 17.1 19.8113 17.3909C19.5912 17.6758 19.434 17.8727 19.3396 17.9818C19.5094 18.2182 19.7013 18.4636 19.9151 18.7182C20.1289 18.9727 20.3774 19.2364 20.6604 19.5091C21.0943 19.9091 21.5692 20.2455 22.0849 20.5182C22.6069 20.7909 23.1887 20.9273 23.8302 20.9273C24.3836 20.9273 24.8868 20.797 25.3396 20.5364C25.7987 20.2697 26.1635 19.9152 26.434 19.4727C26.7107 19.0242 26.8491 18.5273 26.8491 17.9818Z" fill="#484747"/>
</g>
<defs>
<clipPath id="clip0">
<rect width="36" height="36" fill="white"/>
</clipPath>
</defs>
</svg>
