<?xml version="1.0" encoding="iso-8859-1"?>
<!-- Generator: Adobe Illustrator 19.0.0, SVG Export Plug-In . SVG Version: 6.00 Build 0)  -->
<svg version="1.1" id="Layer_1" xmlns="http://www.w3.org/2000/svg" xmlns:xlink="http://www.w3.org/1999/xlink" x="0px" y="0px"
	 viewBox="0 0 512 512" style="enable-background:new 0 0 512 512;" xml:space="preserve">
<path style="fill:#FFFFFF;" d="M256,0C114.133,0,0,114.133,0,256s114.133,256,256,256s256-114.133,256-256S397.867,0,256,0z
	 M256,384c-70.4,0-128-57.6-128-128s57.6-128,128-128s128,57.6,128,128S326.4,384,256,384z"/>
<path style="fill:#F2F2F2;" d="M256,480C132.267,480,32,379.733,32,256S132.267,32,256,32s224,100.267,224,224S379.733,480,256,480z
	 M256,96c-88.533,0-160,71.467-160,160s71.467,160,160,160s160-71.467,160-160S344.533,96,256,96z"/>
<g>
	<path style="fill:#64BEEB;" d="M487.467,146.133L379.733,224C368,179.2,332.8,144,289.067,133.333L366.933,25.6
		C419.2,50.133,461.867,92.8,487.467,146.133z"/>
	<path style="fill:#64BEEB;" d="M222.933,379.733l-77.867,107.733c-53.333-25.6-96-68.267-120.533-120.533l107.733-77.867
		C144,332.8,179.2,368,222.933,379.733z"/>
	<path style="fill:#64BEEB;" d="M487.467,365.867c-25.6,53.333-68.267,96-120.533,120.533l-77.867-107.733
		c44.8-11.733,80-46.933,90.667-90.667L487.467,365.867z"/>
	<path style="fill:#64BEEB;" d="M222.933,132.267c-44.8,11.733-80,46.933-90.667,90.667l-107.733-76.8
		C50.133,92.8,92.8,50.133,145.067,25.6L222.933,132.267z"/>
</g>
<g style="opacity:0.1;">
	<path style="fill:#231F20;" d="M256,96c-88.533,0-160,71.467-160,160s71.467,160,160,160s160-71.467,160-160S344.533,96,256,96z
		 M256,384c-70.4,0-128-57.6-128-128s57.6-128,128-128s128,57.6,128,128S326.4,384,256,384z"/>
	<path style="fill:#231F20;" d="M256,0C114.133,0,0,114.133,0,256s114.133,256,256,256s256-114.133,256-256S397.867,0,256,0z
		 M256,480C132.267,480,32,379.733,32,256S132.267,32,256,32s224,100.267,224,224S379.733,480,256,480z"/>
</g>
<g>
</g>
<g>
</g>
<g>
</g>
<g>
</g>
<g>
</g>
<g>
</g>
<g>
</g>
<g>
</g>
<g>
</g>
<g>
</g>
<g>
</g>
<g>
</g>
<g>
</g>
<g>
</g>
<g>
</g>
</svg>
